# xmcd
#
# Track frame offsets:
# 150
# 14705
# 30335
# 42805
# 61955
# 79057
# 100547
# 118570
# 135512
# 151420
# 169270
# 185010
#
# Disc length: 2699 seconds
#
# Revision: 0
# Processed by: cddbd v1.5.2PL0 Copyright (c) Steve Scherf et al.
# Submitted via: Audion 3.0.2 (http://www.panic.com/audion/)
#
DISCID=910a890c
DTITLE=cake - prolinging the majic
DYEAR=1900
DGENRE=
TTITLE0=cake 1
TTITLE1=cake 2
TTITLE2=cake 3
TTITLE3=cake 4
TTITLE4=cake 5
TTITLE5=cake 6
TTITLE6=cake 7
TTITLE7=cake 8
TTITLE8=cake 9
TTITLE9=cake 10
TTITLE10=cake 11
TTITLE11=cake 12
EXTD=
EXTT0=
EXTT1=
EXTT2=
EXTT3=
EXTT4=
EXTT5=
EXTT6=
EXTT7=
EXTT8=
EXTT9=
EXTT10=
EXTT11=
PLAYORDER=
